<svg version="1" xmlns="http://www.w3.org/2000/svg" width="346.667" height="346.667" viewBox="0 0 260.000000 260.000000"><path d="M106 46.2c0 .5-.4.7-1 .3-.5-.3-1.9 0-3.2.7-2.5 1.4-8.7 7.5-8.9 8.6 0 .4-.3 1.6-.6 2.7-4.1 16.5 11.2 29.2 25.9 21.4 2.8-1.5 6.8-5.9 6.8-7.6 0-.6.5-1.3 1.1-1.5 2.1-.7 1.4-11.2-1.1-15.5-2.3-4.2-9-9.2-12.5-9.4-1.1 0-3-.2-4.2-.3-1.3-.2-2.3.1-2.3.6zM51.1 83.4c-1.4 1.1-2.9 2.5-3.3 3.1-.3.5-1.5 2-2.5 3.2-1 1.1-2.8 3.4-4.1 5-1.2 1.5-4.5 5.6-7.2 9-6.9 8.4-8.1 10.9-6.9 14.3 1.7 4.7 6.9 5.9 11 2.4 1.3-1.1 2.1-1 5.2 1.2 2 1.3 3.7 2.7 3.7 2.9 0 .2-1.3 2.5-2.9 5.1l-3 4.6-.1 25.4c-.1 23.4-.2 25.7-2 28.7-1.1 1.7-2.3 3.9-2.6 4.7-1.6 3.4-8.9 15.6-9.9 16.2-.5.4-.6.8-.2.8.4 0-.6 2-2.3 4.5-1.7 2.5-2.9 4.5-2.6 4.5.3 0 .1 1.1-.4 2.4-.5 1.3-.6 2.7-.2 3.1.4.4.8 1.1.8 1.6.1.5.2 1.3.3 1.8 0 .5 1.5 1.8 3.2 2.9 5.8 3.6 12.4.4 16-7.6.8-1.8 1.7-3.2 2.1-3.2.5 0 .8-.6.8-1.3 0-.7.6-1.9 1.3-2.6.6-.6 1.2-1.5 1.2-1.9 0-.4.9-2.1 1.9-3.7 1.1-1.7 3-4.7 4.3-6.7 1.2-2.1 2.3-4 2.3-4.3 0-.3 1.2-2.3 2.6-4.4 3.2-4.9 5.5-12.3 4.4-14.1-.5-.8-.6-1.8-.3-2.4.8-1.3.8-6.8 0-8.9-.4-1-.3-1.7.1-1.7.5 0 .6-1.6.4-3.5-.2-1.9 0-3.5.4-3.5.5 0 4.5 5.7 8.9 12.6l8 12.6.1 19.2c.1 16.8.3 19.6 1.9 22.4 3.7 6.2 11 6.5 15.1.5 1.9-2.9 2-4.3 1.9-26.4-.1-14.7-.6-24.3-1.3-25.9-.6-1.4-4.7-7.9-9.1-14.5-4.4-6.6-7.8-12.1-7.6-12.3.2-.3 3.1 1.7 6.5 4.2 3.3 2.5 6.5 4.6 7 4.6.6 0 1.1.9 1.1 2 .2 2.8.3 3.3 1.4 5.1 1.5 2.4 4.7 3.7 7 2.9 1.4-.5 3.3.2 6.5 2.4 2.5 1.7 4.7 3.4 5 3.7.3.3 3.9 3 8 6 12.8 9.1 13.6 9.9 12 10.9-.8.6-1 1-.5 1 .6 0 .3.6-.6 1.3-2.8 2.2-3 4.5-.5 7.2 1.3 1.4 2.7 2.5 3.2 2.5s2.2 1.1 3.7 2.4c1.6 1.3 3.8 3.1 4.9 3.8l2.2 1.5-3 4.1c-2.7 3.9-3.2 4.2-6.9 3.8-2.2-.2-4.7 0-5.6.5-1.4.7-8.1 8.9-10.3 12.6-.6 1 12.2 1.3 62.4 1.3h63.2l-3-5.2c-1.6-2.9-3.8-6.9-4.8-8.8-1.1-1.9-2.5-4-3.1-4.8-.7-.7-1.3-1.8-1.3-2.3 0-.5-1.5-3.2-3.3-6.1-1.9-2.9-3.7-6-4.1-6.8-.3-.8-1.7-3.3-3.1-5.5-1.3-2.2-2.8-5-3.4-6.1-1.1-2.4-4.7-6.1-8.1-8.4-1.2-.8-4.2-3.1-6.7-5-4-3.1-5.3-3.5-11.5-3.7-6.4-.3-7.5 0-13.3 3.2-7.5 4.2-8.2 5-8 9 .1 2.9-2.2 8.5-3.6 8.5-.4 0-2.1-1.1-3.7-2.5-1.7-1.4-3.5-2.5-4.1-2.5-.6 0-1.1-.3-1.1-.8 0-.4-1.7-1.8-3.7-3.2-2-1.4-4.2-3-4.9-3.7-.6-.7-2.3-1.4-3.8-1.7-2-.4-3.1.3-5.4 3.2l-3 3.6-3.3-2.8c-1.9-1.5-8.9-6.8-15.6-11.7l-12.3-9-.1-30.9c-.1-17.1-.2-31.3-.3-31.8-.9-3.9-3.1-8.3-5.1-10-6-5.3-7.7-5.6-29.4-5.7-18.9 0-20.6.1-23 1.9zm15.7 15c.5 1.3.1 2.2-2.1 4.6-1.2 1.4-4.4 5.3-7.1 8.7-2.7 3.5-5.2 6.3-5.5 6.3-.3 0-2.1-1.3-4-2.9l-3.5-2.9 2.7-3.3c1.5-1.9 3.7-4.7 5-6.2 1.2-1.5 2.7-3.3 3.3-4 1.1-1.2 10.7-1.5 11.2-.3zM95.5 135c0 7.7-.3 14-.7 14-.3 0-2.9-1.8-5.7-4-2.8-2.2-5.5-4-6-4-1.1 0-2.2-2.8-1.3-3.2.5-.2 13.7-16.4 13.7-16.8v14z"/></svg>